#!OML:ASF I:\Actors\actors\Patient Classification 1\Patient 1\Session 1\Subject1.ASF
:FULLY-SPECIFIED
:DEGREES
424
root 0.719524 17.4843 9.23559 7.54266 1.78438 -8.68335
lowerback -1.79258 1.99664 4.81951
upperback -8.35946 2.95946 2.14844
thorax -7.63485 1.2312 -0.572164
lowerneck -13.4507 -0.925232 0.888995
upperneck 32.0929 -2.67458 3.30943
head 13.003 -0.610841 0.736956
rclavicle -2.68359e-015 -2.70347e-014
rhumerus -25.7213 40.8908 -105.659
rradius 93.4267
rwrist 42.3953
rhand -25.2826 -48.7101
rfingers 7.12502
rthumb 1.23859 -78.6862
lclavicle -2.68359e-015 -2.70347e-014
lhumerus -33.3236 -11.5494 101.847
lradius 92.9987
lwrist 78.2133
lhand -17.4017 12.1585
lfingers 7.12502
lthumb 8.84769 41.953
rfemur -3.26264 21.7401 25.7841
rtibia 5.38551
rfoot -13.7229 -25.3387
rtoes 3.50404
lfemur 4.67067 -41.0816 -12.0785
ltibia -3.88023
lfoot -15.6441 47.3926
ltoes 4.78598
425
root 0.719719 17.4824 9.23924 7.51629 1.72183 -8.69465
lowerback -1.82226 2.00699 4.84416
upperback -8.32149 2.96901 2.13982
thorax -7.57412 1.23556 -0.593679
lowerneck -13.4589 -0.935851 0.933904
upperneck 32.1624 -2.69106 3.26342
head 13.033 -0.617537 0.709395
rclavicle 1.20762e-014 2.66371e-014
rhumerus -25.6942 40.9454 -105.567
rradius 93.2601
rwrist 42.4406
rhand -25.8133 -48.6995
rfingers 7.12502
rthumb 0.72606 -78.678
lclavicle 1.20762e-014 2.66371e-014
lhumerus -33.2204 -11.5295 101.764
lradius 92.891
lwrist 78.2106
lhand -15.9331 12.8404
lfingers 7.12502
lthumb 10.2647 42.57
rfemur -3.18463 21.7359 25.8149
rtibia 5.35776
rfoot -13.7969 -25.2561
rtoes 3.83519
lfemur 4.84853 -41.1784 -12.2013
ltibia -3.92834
lfoot -15.7411 47.5426
ltoes 4.89627
426
root 0.719537 17.4823 9.24144 7.55167 1.68055 -8.69902
lowerback -1.87086 1.99944 4.83259
upperback -8.30516 2.95498 2.1555
thorax -7.52993 1.23117 -0.568252
lowerneck -13.4778 -0.936781 1.01917
upperneck 32.2511 -2.68454 3.15342
head 13.0713 -0.617221 0.653369
rclavicle -1.2275e-014 -2.66371e-014
rhumerus -25.7964 41.0243 -105.468
rradius 93.4978
rwrist 42.425
rhand -26.2284 -48.4709
rfingers 7.12502
rthumb 0.325145 -78.4504
lclavicle -1.2275e-014 -2.66371e-014
lhumerus -33.0813 -11.4437 101.723
lradius 92.7419
lwrist 78.0448
lhand -16.2208 12.3194
lfingers 7.12502
lthumb 9.98719 42.0625
rfemur -3.20967 21.7325 25.8077
rtibia 5.36409
rfoot -13.8063 -25.2057
rtoes 3.89233
lfemur 4.87586 -41.2352 -12.2268
ltibia -3.94591
lfoot -15.7533 47.6525
ltoes 4.83189
427
root 0.71979 17.4808 9.23706 7.72588 1.62157 -8.73959
lowerback -1.9215 2.02352 4.86707
upperback -8.35608 2.98814 2.16982
thorax -7.5545 1.2449 -0.572382
lowerneck -13.5545 -0.983369 0.833649
upperneck 32.3512 -2.75711 3.30039
head 13.137 -0.649826 0.732947
rclavicle -3.17559e-014 -2.82274e-014
rhumerus -26.0472 41.0827 -105.409
rradius 93.9971
rwrist 42.0813
rhand -27.0269 -48.1664
rfingers 7.12502
rthumb -0.446026 -78.1456
lclavicle -3.17559e-014 -2.82274e-014
lhumerus -32.9479 -11.4145 101.698
lradius 92.5619
lwrist 77.8121
lhand -16.7676 11.9281
lfingers 7.12502
lthumb 9.45958 41.6958
rfemur -3.51591 21.6652 25.7369
rtibia 5.46067
rfoot -13.7521 -25.0732
rtoes 3.73905
lfemur 4.55828 -41.168 -11.9736
ltibia -3.89449
lfoot -15.7516 47.6626
ltoes 4.68613
428
root 0.723422 17.4735 9.22539 8.10201 1.45102 -8.83786
lowerback -2.03708 2.10963 5.02464
upperback -8.48901 3.10534 2.15543
thorax -7.62122 1.28896 -0.676471
lowerneck -13.5933 -1.0045 0.736587
upperneck 32.4018 -2.79817 3.40178
head 13.1711 -0.664959 0.783798
rclavicle -2.2413e-014 -3.79679e-014
rhumerus -26.3953 41.1083 -105.426
rradius 94.6251
rwrist 41.6366
rhand -28.1505 -47.7984
rfingers 7.12502
rthumb -1.53124 -77.7726
lclavicle -2.2413e-014 -3.79679e-014
lhumerus -32.8613 -11.4501 101.629
lradius 92.4397
lwrist 77.7496
lhand -16.9876 11.6944
lfingers 7.12502
lthumb 9.2473 41.4716
rfemur -4.24727 21.4038 25.5663
rtibia 5.75795
rfoot -13.6271 -24.6381
rtoes 3.25483
lfemur 3.88751 -41.0629 -11.4572
ltibia -3.76468
lfoot -15.9018 47.7354
ltoes 4.80351
429
root 0.721809 17.4735 9.22519 8.19293 1.53662 -8.85364
lowerback -2.08655 2.05332 5.02621
upperback -8.50654 3.0277 2.16483
thorax -7.61576 1.25078 -0.662711
lowerneck -13.5897 -0.954741 0.855502
upperneck 32.4044 -2.72612 3.30484
head 13.1666 -0.631712 0.735948
rclavicle -1.15792e-014 1.59028e-014
rhumerus -26.8091 41.18 -105.485
rradius 95.3997
rwrist 41.4526
rhand -28.995 -46.9707
rfingers 7.12502
rthumb -2.34687 -76.9376
lclavicle -1.15792e-014 1.59028e-014
lhumerus -32.8015 -11.4229 101.491
lradius 92.4274
lwrist 77.7623
lhand -16.9652 11.7142
lfingers 7.12502
lthumb 9.26888 41.4904
rfemur -4.3812 21.3767 25.5491
rtibia 5.79191
rfoot -13.67 -24.6962
rtoes 3.22807
lfemur 3.65102 -41.0166 -11.2605
ltibia -3.73062
lfoot -15.786 47.6278
ltoes 4.83134
430
root 0.723052 17.4722 9.22591 8.30823 1.59107 -8.80925
lowerback -2.19417 1.98145 5.00302
upperback -8.51988 2.92349 2.16883
thorax -7.57366 1.20177 -0.63776
lowerneck -13.5337 -0.893292 0.938593
upperneck 32.37 -2.63287 3.23359
head 13.1357 -0.591593 0.70737
rclavicle 2.08724e-014 2.40529e-014
rhumerus -27.3253 41.3314 -105.589
rradius 96.2224
rwrist 41.5699
rhand -29.6174 -45.7491
rfingers 7.12502
rthumb -2.94798 -75.7085
lclavicle 2.08724e-014 2.40529e-014
lhumerus -32.7473 -11.3147 101.334
lradius 92.4657
lwrist 77.7457
lhand -16.9927 11.8665
lfingers 7.12502
lthumb 9.24241 41.644
rfemur -4.53767 21.2728 25.4326
rtibia 5.80581
rfoot -13.6635 -24.6888
rtoes 3.21442
lfemur 3.43036 -41.0464 -11.1801
ltibia -3.6884
lfoot -15.8216 47.5929
ltoes 5.09235
